<svg width="200" height="200" viewBox="0 0 200 200" xmlns="http://www.w3.org/2000/svg">
  <defs>
    <linearGradient id="bg" x1="0%" y1="0%" x2="100%" y2="100%">
      <stop offset="0%" style="stop-color:#F59E0B;stop-opacity:1" />
      <stop offset="100%" style="stop-color:#EF4444;stop-opacity:1" />
    </linearGradient>
  </defs>
  
  <!-- Background circle -->
  <circle cx="100" cy="100" r="100" fill="url(#bg)"/>
  
  <!-- Head -->
  <circle cx="100" cy="80" r="35" fill="#F3F4F6"/>
  
  <!-- Body -->
  <ellipse cx="100" cy="140" rx="45" ry="35" fill="#F3F4F6"/>
  
  <!-- Wild hair -->
  <path d="M 65 40 Q 100 20 135 40 Q 130 60 100 50 Q 70 60 65 40" fill="#1F2937"/>
  <path d="M 60 45 Q 80 25 100 35 Q 120 25 140 45" fill="#1F2937"/>
  <path d="M 70 35 Q 90 15 100 25 Q 110 15 130 35" fill="#1F2937"/>
  
  <!-- Mustache -->
  <path d="M 80 85 Q 100 95 120 85" stroke="#1F2937" stroke-width="3" fill="none" stroke-linecap="round"/>
  
  <!-- Eyes -->
  <circle cx="90" cy="75" r="4" fill="#374151"/>
  <circle cx="110" cy="75" r="4" fill="#374151"/>
  
  <!-- Glasses frames -->
  <circle cx="90" cy="75" r="12" stroke="#374151" stroke-width="2" fill="none"/>
  <circle cx="110" cy="75" r="12" stroke="#374151" stroke-width="2" fill="none"/>
  <line x1="102" y1="75" x2="98" y2="75" stroke="#374151" stroke-width="2"/>
  
  <!-- Initial E -->
  <text x="100" y="120" font-family="Arial, sans-serif" font-size="24" font-weight="bold" text-anchor="middle" fill="white">E</text>
</svg>
